HIERARCHY
ROOT Hips
{
	OFFSET 0.000000 87.230942 0.000000
	CHANNELS 6 Xposition Yposition Zposition Xrotation Yrotation Zrotation
	JOINT Pelvis
	{
		OFFSET 0.000000 0.000000 0.000000
		CHANNELS 3 Xrotation Yrotation Zrotation
		JOINT LeftUpLeg
		{
			OFFSET 12.017000 -9.376404 -2.439400
			CHANNELS 3 Xrotation Yrotation Zrotation
			JOINT LeftLeg
			{
				OFFSET -0.007312 -32.846973 2.110600
				CHANNELS 3 Xrotation Yrotation Zrotation
				JOINT LeftFoot
				{
					OFFSET 0.007312 -32.065170 -0.570400
					CHANNELS 3 Xrotation Yrotation Zrotation
					JOINT LeftToeBase
					{
						OFFSET 0.728300 -11.045900 13.180700
						CHANNELS 3 Xrotation Yrotation Zrotation
						End Site
						{
							OFFSET 0.000000 17.212589 0.000000
						}
					}
				}
				JOINT LeftPantLeg
				{
					OFFSET 0.002788 -16.709013 -3.143600
					CHANNELS 3 Xrotation Yrotation Zrotation
					End Site
					{
						OFFSET -0.605125 24.528742 0.000000
					}
				}
			}
			JOINT Left_Butt
			{
				OFFSET -6.630234 1.326584 -3.183700
				CHANNELS 3 Xrotation Yrotation Zrotation
				End Site
				{
					OFFSET -0.498041 20.188049 0.000000
				}
			}
		}
		JOINT RightUpLeg
		{
			OFFSET -11.717000 -9.376404 -2.439400
			CHANNELS 3 Xrotation Yrotation Zrotation
			JOINT RightLeg
			{
				OFFSET -0.003241 -32.846912 2.110600
				CHANNELS 3 Xrotation Yrotation Zrotation
				JOINT RightFoot
				{
					OFFSET 0.003241 -32.065136 -0.570500
					CHANNELS 3 Xrotation Yrotation Zrotation
					JOINT RightToeBase
					{
						OFFSET -0.728300 -11.045901 13.180700
						CHANNELS 3 Xrotation Yrotation Zrotation
						End Site
						{
							OFFSET 0.000000 17.212593 0.000000
						}
					}
				}
				JOINT RightPantLeg
				{
					OFFSET 0.008142 -16.708982 -3.143700
					CHANNELS 3 Xrotation Yrotation Zrotation
					End Site
					{
						OFFSET 0.605088 24.528715 0.000000
					}
				}
			}
			JOINT Right_Butt
			{
				OFFSET 6.630732 1.326584 -3.183700
				CHANNELS 3 Xrotation Yrotation Zrotation
				End Site
				{
					OFFSET 0.498015 20.188240 0.000000
				}
			}
		}
	}
	JOINT Spine
	{
		OFFSET -0.062400 7.848404 3.918300
		CHANNELS 3 Xrotation Yrotation Zrotation
		JOINT Spine1
		{
			OFFSET -0.072800 11.422302 0.713400
			CHANNELS 3 Xrotation Yrotation Zrotation
			JOINT Spine2
			{
				OFFSET -0.083200 13.054001 -1.931600
				CHANNELS 3 Xrotation Yrotation Zrotation
				JOINT Neck
				{
					OFFSET -0.092200 14.121796 -5.138800
					CHANNELS 3 Xrotation Yrotation Zrotation
					JOINT Head
					{
						OFFSET 0.000200 10.447403 -0.842000
						CHANNELS 3 Xrotation Yrotation Zrotation
						JOINT Visor
						{
							OFFSET 0.457100 25.671204 16.550400
							CHANNELS 3 Xrotation Yrotation Zrotation
							End Site
							{
								OFFSET 0.000000 26.061493 0.000000
							}
						}
						JOINT HairMidA
						{
							OFFSET 0.459400 31.585403 8.437400
							CHANNELS 3 Xrotation Yrotation Zrotation
							End Site
							{
								OFFSET 0.000000 26.061493 0.000000
							}
						}
						JOINT HairMidB
						{
							OFFSET 0.464000 33.309204 -8.389700
							CHANNELS 3 Xrotation Yrotation Zrotation
							End Site
							{
								OFFSET 0.000000 26.061493 0.000000
							}
						}
						JOINT HairMidC
						{
							OFFSET 0.466600 27.991196 -17.375099
							CHANNELS 3 Xrotation Yrotation Zrotation
							End Site
							{
								OFFSET 0.000000 26.061493 0.000000
							}
						}
						JOINT HairMidD
						{
							OFFSET 0.467700 17.888092 -21.169500
							CHANNELS 3 Xrotation Yrotation Zrotation
							End Site
							{
								OFFSET 0.000000 26.061493 0.000000
							}
						}
						JOINT HairMidE
						{
							OFFSET 5.325700 3.514603 -14.369699
							CHANNELS 3 Xrotation Yrotation Zrotation
							End Site
							{
								OFFSET 0.000000 26.061493 0.000000
							}
						}
						JOINT HairMidF
						{
							OFFSET -4.394100 3.514603 -14.372400
							CHANNELS 3 Xrotation Yrotation Zrotation
							End Site
							{
								OFFSET 0.000000 26.061493 0.000000
							}
						}
						JOINT HairLeftA
						{
							OFFSET 15.319900 25.746506 2.623300
							CHANNELS 3 Xrotation Yrotation Zrotation
							End Site
							{
								OFFSET 0.000000 26.061493 0.000000
							}
						}
						JOINT HairLeftB
						{
							OFFSET 12.619500 29.289398 -8.731499
							CHANNELS 3 Xrotation Yrotation Zrotation
							End Site
							{
								OFFSET 0.000000 26.061493 0.000000
							}
						}
						JOINT HairLeftC
						{
							OFFSET 15.714800 15.959900 2.909800
							CHANNELS 3 Xrotation Yrotation Zrotation
							End Site
							{
								OFFSET 0.000000 26.061493 0.000000
							}
						}
						JOINT HairLeftD
						{
							OFFSET 16.101700 18.437408 -7.553200
							CHANNELS 3 Xrotation Yrotation Zrotation
							End Site
							{
								OFFSET 0.000000 26.061493 0.000000
							}
						}
						JOINT HairLeftE
						{
							OFFSET 9.731900 17.915009 -18.316799
							CHANNELS 3 Xrotation Yrotation Zrotation
							End Site
							{
								OFFSET 0.000000 26.061493 0.000000
							}
						}
						JOINT HairLeftF
						{
							OFFSET 11.204300 4.953598 -9.668100
							CHANNELS 3 Xrotation Yrotation Zrotation
							End Site
							{
								OFFSET 0.000000 26.061493 0.000000
							}
						}
						JOINT HairRightA
						{
							OFFSET -14.397900 25.746307 2.615100
							CHANNELS 3 Xrotation Yrotation Zrotation
							End Site
							{
								OFFSET 0.000000 26.061493 0.000000
							}
						}
						JOINT HairRightB
						{
							OFFSET -11.691200 29.289200 -8.738199
							CHANNELS 3 Xrotation Yrotation Zrotation
							End Site
							{
								OFFSET 0.000000 26.061493 0.000000
							}
						}
						JOINT HairRightC
						{
							OFFSET -14.792900 15.959702 2.901400
							CHANNELS 3 Xrotation Yrotation Zrotation
							End Site
							{
								OFFSET 0.000000 26.061493 0.000000
							}
						}
						JOINT HairRightD
						{
							OFFSET -15.174000 18.437195 -7.561900
							CHANNELS 3 Xrotation Yrotation Zrotation
							End Site
							{
								OFFSET 0.000000 26.061493 0.000000
							}
						}
						JOINT HairRightE
						{
							OFFSET -8.798200 17.914902 -18.322001
							CHANNELS 3 Xrotation Yrotation Zrotation
							End Site
							{
								OFFSET 0.000000 26.061493 0.000000
							}
						}
						JOINT HairRightF
						{
							OFFSET -10.275200 4.953506 -9.674099
							CHANNELS 3 Xrotation Yrotation Zrotation
							End Site
							{
								OFFSET 0.000000 26.061493 0.000000
							}
						}
					}
				}
				JOINT LeftShoulder
				{
					OFFSET 5.133500 7.341202 -1.867600
					CHANNELS 3 Xrotation Yrotation Zrotation
					JOINT LeftArm
					{
						OFFSET 8.072663 0.936867 -2.176600
						CHANNELS 3 Xrotation Yrotation Zrotation
						JOINT LeftForeArm
						{
							OFFSET 31.271999 0.000000 0.000000
							CHANNELS 3 Xrotation Yrotation Zrotation
							JOINT LeftHand
							{
								OFFSET 31.771030 0.000000 0.000000
								CHANNELS 3 Xrotation Yrotation Zrotation
								JOINT LeftHandThumb1
								{
									OFFSET 2.886520 -2.557846 4.416640
									CHANNELS 3 Xrotation Yrotation Zrotation
									JOINT LeftHandThumb2
									{
										OFFSET 2.371025 -1.368912 1.368911
										CHANNELS 3 Xrotation Yrotation Zrotation
										JOINT LeftHandThumb3
										{
											OFFSET 2.243378 -1.295212 1.295213
											CHANNELS 3 Xrotation Yrotation Zrotation
											End Site
											{
												OFFSET -0.332611 2.876945 0.020015
											}
										}
									}
								}
								JOINT LeftHandIndex1
								{
									OFFSET 8.568985 -0.641945 3.119977
									CHANNELS 3 Xrotation Yrotation Zrotation
									JOINT LeftHandIndex2
									{
										OFFSET 3.348503 0.000000 0.000000
										CHANNELS 3 Xrotation Yrotation Zrotation
										JOINT LeftHandIndex3
										{
											OFFSET 3.314552 0.000000 0.000000
											CHANNELS 3 Xrotation Yrotation Zrotation
											End Site
											{
												OFFSET -1.032898 3.075485 0.678796
											}
										}
									}
								}
								JOINT LeftHandMiddle1
								{
									OFFSET 8.124603 0.000000 0.000000
									CHANNELS 3 Xrotation Yrotation Zrotation
									JOINT LeftHandMiddle2
									{
										OFFSET 4.166275 0.000000 0.000000
										CHANNELS 3 Xrotation Yrotation Zrotation
										JOINT LeftHandMiddle3
										{
											OFFSET 3.018135 0.000000 0.000000
											CHANNELS 3 Xrotation Yrotation Zrotation
											End Site
											{
												OFFSET -1.032700 2.767982 0.617226
											}
										}
									}
								}
								JOINT LeftHandRing1
								{
									OFFSET 8.571686 -0.031357 -2.884048
									CHANNELS 3 Xrotation Yrotation Zrotation
									JOINT LeftHandRing2
									{
										OFFSET 3.671181 0.000000 0.000000
										CHANNELS 3 Xrotation Yrotation Zrotation
										JOINT LeftHandRing3
										{
											OFFSET 2.728851 0.000000 0.000000
											CHANNELS 3 Xrotation Yrotation Zrotation
											End Site
											{
												OFFSET -0.815796 2.539223 0.577389
											}
										}
									}
								}
								JOINT LeftHandPinky1
								{
									OFFSET 7.854515 -0.675232 -5.213020
									CHANNELS 3 Xrotation Yrotation Zrotation
									JOINT LeftHandPinky2
									{
										OFFSET 3.068596 0.000000 0.000000
										CHANNELS 3 Xrotation Yrotation Zrotation
										JOINT LeftHandPinky3
										{
											OFFSET 2.396042 0.000000 0.000000
											CHANNELS 3 Xrotation Yrotation Zrotation
											End Site
											{
												OFFSET -0.524597 2.267998 0.567429
											}
										}
									}
								}
							}
							JOINT LeftSleeve
							{
								OFFSET 19.684509 -0.200119 0.476146
								CHANNELS 3 Xrotation Yrotation Zrotation
								End Site
								{
									OFFSET -0.031017 25.731133 -0.002868
								}
							}
						}
					}
				}
				JOINT RightShoulder
				{
					OFFSET -4.395900 7.341202 -1.870200
					CHANNELS 3 Xrotation Yrotation Zrotation
					JOINT RightArm
					{
						OFFSET -8.071453 0.936867 -2.181100
						CHANNELS 3 Xrotation Yrotation Zrotation
						JOINT RightForeArm
						{
							OFFSET -31.272011 0.000000 0.000000
							CHANNELS 3 Xrotation Yrotation Zrotation
							JOINT RightHand
							{
								OFFSET -31.771019 0.000000 0.000000
								CHANNELS 3 Xrotation Yrotation Zrotation
								JOINT RightHandThumb1
								{
									OFFSET -2.886520 -2.557808 4.416626
									CHANNELS 3 Xrotation Yrotation Zrotation
									JOINT RightHandThumb2
									{
										OFFSET -2.371056 -1.368927 1.368928
										CHANNELS 3 Xrotation Yrotation Zrotation
										JOINT RightHandThumb3
										{
											OFFSET -2.243362 -1.295204 1.295206
											CHANNELS 3 Xrotation Yrotation Zrotation
											End Site
											{
												OFFSET 0.332642 2.876938 0.020047
											}
										}
									}
								}
								JOINT RightHandIndex1
								{
									OFFSET -8.568993 -0.641953 3.120017
									CHANNELS 3 Xrotation Yrotation Zrotation
									JOINT RightHandIndex2
									{
										OFFSET -3.348518 0.000000 0.000000
										CHANNELS 3 Xrotation Yrotation Zrotation
										JOINT RightHandIndex3
										{
											OFFSET -3.314552 0.000000 0.000000
											CHANNELS 3 Xrotation Yrotation Zrotation
											End Site
											{
												OFFSET 1.032898 3.075478 0.678804
											}
										}
									}
								}
								JOINT RightHandMiddle1
								{
									OFFSET -8.124588 0.000000 0.000000
									CHANNELS 3 Xrotation Yrotation Zrotation
									JOINT RightHandMiddle2
									{
										OFFSET -4.166275 0.000000 0.000000
										CHANNELS 3 Xrotation Yrotation Zrotation
										JOINT RightHandMiddle3
										{
											OFFSET -3.018097 0.000000 0.000000
											CHANNELS 3 Xrotation Yrotation Zrotation
											End Site
											{
												OFFSET 1.032700 2.767937 0.617197
											}
										}
									}
								}
								JOINT RightHandRing1
								{
									OFFSET -8.571747 -0.031349 -2.884061
									CHANNELS 3 Xrotation Yrotation Zrotation
									JOINT RightHandRing2
									{
										OFFSET -3.671204 0.000000 0.000000
										CHANNELS 3 Xrotation Yrotation Zrotation
										JOINT RightHandRing3
										{
											OFFSET -2.728874 0.000000 0.000000
											CHANNELS 3 Xrotation Yrotation Zrotation
											End Site
											{
												OFFSET 0.815804 2.539261 0.577413
											}
										}
									}
								}
								JOINT RightHandPinky1
								{
									OFFSET -7.854561 -0.675247 -5.212970
									CHANNELS 3 Xrotation Yrotation Zrotation
									JOINT RightHandPinky2
									{
										OFFSET -3.068550 0.000000 0.000000
										CHANNELS 3 Xrotation Yrotation Zrotation
										JOINT RightHandPinky3
										{
											OFFSET -2.395981 0.000000 0.000000
											CHANNELS 3 Xrotation Yrotation Zrotation
											End Site
											{
												OFFSET 0.524605 2.267952 0.567413
											}
										}
									}
								}
							}
							JOINT RightSleeve
							{
								OFFSET -19.684753 -0.200165 0.476065
								CHANNELS 3 Xrotation Yrotation Zrotation
								End Site
								{
									OFFSET 0.031342 25.731255 -0.002917
								}
							}
						}
					}
				}
				JOINT Hood
				{
					OFFSET 0.369700 14.447800 -5.317800
					CHANNELS 3 Xrotation Yrotation Zrotation
					JOINT Hood1
					{
						OFFSET 0.001700 -5.553802 -5.895100
						CHANNELS 3 Xrotation Yrotation Zrotation
						JOINT Hood2
						{
							OFFSET -0.000200 -8.380501 0.763600
							CHANNELS 3 Xrotation Yrotation Zrotation
							End Site
							{
								OFFSET 0.000000 8.415215 0.000000
							}
						}
					}
				}
				JOINT Left_Breast
				{
					OFFSET 5.682500 3.120102 3.188800
					CHANNELS 3 Xrotation Yrotation Zrotation
					End Site
					{
						OFFSET 0.000000 10.528564 0.000000
					}
				}
				JOINT Right_Breast
				{
					OFFSET -4.947600 3.120102 3.185900
					CHANNELS 3 Xrotation Yrotation Zrotation
					End Site
					{
						OFFSET 0.000000 10.528564 0.000000
					}
				}
				JOINT Whistle
				{
					OFFSET 0.368200 11.471298 0.095400
					CHANNELS 3 Xrotation Yrotation Zrotation
					JOINT Whistle1
					{
						OFFSET -0.002000 -6.349899 7.479800
						CHANNELS 3 Xrotation Yrotation Zrotation
						JOINT Whistle2
						{
							OFFSET -0.001300 -8.217598 4.717600
							CHANNELS 3 Xrotation Yrotation Zrotation
							End Site
							{
								OFFSET 0.000000 9.475479 0.000000
							}
						}
					}
				}
			}
		}
		JOINT Belly
		{
			OFFSET 0.212400 1.593002 3.163700
			CHANNELS 3 Xrotation Yrotation Zrotation
			End Site
			{
				OFFSET 0.000000 7.496635 0.000000
			}
		}
	}
	JOINT FitGrandmaFacialAnim_Joint
	{
		OFFSET 1.150000 -86.211197 -1.220100
		CHANNELS 3 Xrotation Yrotation Zrotation
		End Site
		{
			OFFSET 0.000000 31.666618 0.000000
		}
	}
}
MOTION
Frames: 4
Frame Time: 0.016667
-0.588324 82.320709 1.458705 5.048623 -15.612520 0.239343 -0.000000 0.000001 0.000000 -31.485601 3.421065 9.601809 31.775983 4.561164 1.584000 -4.532944 0.639427 -6.729857 -0.000000 0.000000 -0.000000 0.000000 -0.000000 0.000000 0.000000 -0.000001 -0.000000 -10.778202 -11.487029 -11.851833 30.826611 -6.050251 1.485480 -22.159924 -2.868081 11.881679 -0.000000 -0.000004 0.000000 -0.000001 -0.000002 0.000001 -0.000000 -0.000002 0.000000 23.096717 4.311305 -0.363262 3.699125 1.240174 -0.846329 3.692585 1.312478 -0.857370 -12.698245 1.123399 2.281902 -14.088305 7.829660 -3.298853 0.000001 0.000000 0.000000 0.000001 0.000000 0.000000 0.000001 0.000000 0.000000 0.000001 0.000000 0.000000 0.000001 0.000000 0.000000 0.000001 0.000000 0.000000 0.000001 0.000000 0.000000 0.000001 0.000000 0.000000 0.000001 0.000000 0.000000 0.000001 0.000000 0.000000 0.000001 0.000000 0.000000 0.000001 0.000000 0.000000 0.000001 0.000000 0.000000 0.000001 0.000000 0.000000 0.000001 0.000000 0.000000 0.000001 0.000000 0.000000 0.000001 0.000000 0.000000 0.000001 0.000000 0.000000 0.000001 0.000000 0.000000 7.811600 -20.950973 9.744746 -33.643029 -3.124183 -85.445632 0.000024 -42.998305 -4.823144 -17.287101 -10.866531 -12.599032 -7.471926 1.860692 -7.166915 30.987004 27.310549 -4.510890 0.000001 0.000002 0.000004 -4.713138 11.342496 -75.220942 -0.816395 3.073992 -46.874635 0.000001 0.000002 0.000005 1.616648 16.582642 -84.688834 0.017999 0.022042 -72.884839 -0.000002 0.000002 0.000001 -6.443157 23.132669 -76.210158 0.013353 0.983474 -51.003618 0.000001 -0.000000 -0.000002 -17.099013 22.128935 -43.123188 0.019716 0.027016 -78.662893 0.000000 -0.000001 0.000002 -0.000001 -0.000000 0.000001 13.917689 27.239894 -23.496416 -43.128560 -5.411296 84.812248 0.000044 58.104597 5.767221 -18.206872 16.096521 8.636280 9.347172 2.810541 -11.364517 16.169056 -43.266004 15.843539 0.000000 0.000001 0.000001 17.076789 -0.396521 31.924349 -0.204395 -0.284241 112.811564 0.000001 0.000002 0.000002 9.205454 -5.035894 102.738080 0.014991 -0.019193 61.018513 -0.000001 0.000000 -0.000003 5.569162 -8.935241 107.329108 0.547993 -0.005790 41.263707 0.000001 -0.000003 0.000001 6.511258 -17.148281 98.228038 0.007399 -0.015735 43.845730 -0.000001 0.000000 0.000001 0.000000 0.000000 -0.000002 -0.000000 -0.000000 0.000000 -0.000000 -0.000000 0.000000 -0.000000 -0.000000 0.000000 -0.000000 -0.000000 0.000000 -0.000000 -0.000000 0.000000 -0.000001 -0.000000 0.000000 -0.000001 -0.000001 0.000001 -0.000001 -0.000001 0.000001 -0.000002 0.000000 0.000000 -0.000000 0.000001 0.000000 
-0.567967 82.316704 1.438578 5.033309 -15.870100 0.263462 0.000000 0.000001 -0.000000 -31.438896 3.401438 9.636005 31.852690 4.813122 1.559779 -4.596961 0.650663 -6.782850 0.000000 -0.000000 -0.000000 0.000000 -0.000000 0.000001 -0.000002 0.000000 -0.000000 -10.936316 -11.518182 -11.921422 30.898307 -5.745407 1.422367 -22.135407 -2.849808 11.827941 -0.000000 0.000000 0.000000 -0.000001 0.000002 0.000000 -0.000000 0.000002 0.000000 23.095873 4.347292 -0.364554 3.697003 1.270045 -0.848467 3.690615 1.342610 -0.860967 -12.863698 1.675242 2.090667 -13.987699 8.414726 -3.310302 0.000001 -0.000000 0.000000 0.000001 -0.000000 0.000000 0.000001 -0.000000 0.000000 0.000001 -0.000000 0.000000 0.000001 -0.000000 0.000000 0.000001 -0.000000 0.000000 0.000001 -0.000000 0.000000 0.000001 -0.000000 0.000000 0.000001 -0.000000 0.000000 0.000001 -0.000000 0.000000 0.000001 -0.000000 0.000000 0.000001 -0.000000 0.000000 0.000001 -0.000000 0.000000 0.000001 -0.000000 0.000000 0.000001 -0.000000 0.000000 0.000001 -0.000000 0.000000 0.000001 -0.000000 0.000000 0.000001 -0.000000 0.000000 0.000001 -0.000000 0.000000 7.686588 -20.788215 9.327160 -33.679629 -3.519089 -85.304678 -0.000001 -43.357269 -4.333579 -17.231579 -10.328820 -12.796285 -7.471929 1.860697 -7.166921 30.986997 27.310549 -4.510887 -0.000001 -0.000003 0.000000 -4.711752 11.345161 -75.237478 -0.816397 3.073990 -46.874635 0.000002 0.000001 -0.000001 1.623063 16.576297 -84.598668 0.017959 0.022015 -72.792632 -0.000002 -0.000003 -0.000002 -6.615171 23.030160 -76.196375 0.013390 0.979961 -50.778659 0.000003 0.000003 -0.000001 -17.265759 21.699636 -43.572099 0.019273 0.026925 -77.688757 0.000000 -0.000001 -0.000001 0.000001 0.000002 -0.000002 13.325453 26.974538 -22.684440 -43.270672 -4.158115 84.402697 0.000030 57.768053 5.603143 -18.560295 15.926150 8.602534 9.347171 2.810540 -11.364520 16.169062 -43.266011 15.843536 0.000001 0.000001 -0.000000 17.076789 -0.396520 31.924345 -0.204394 -0.284241 112.811564 -0.000001 0.000001 0.000002 9.205454 -5.035892 102.738080 0.014990 -0.019196 61.018513 -0.000000 0.000001 -0.000003 5.569163 -8.935245 107.329108 0.547991 -0.005786 41.263703 -0.000000 -0.000001 0.000001 6.511258 -17.148276 98.228038 0.007404 -0.015732 43.845727 -0.000002 -0.000001 0.000001 -0.000001 0.000004 0.000001 0.000002 0.000000 -0.000000 0.000002 0.000000 -0.000000 0.000002 0.000000 -0.000000 0.000002 0.000000 -0.000000 0.000002 0.000000 -0.000000 0.000002 0.000000 0.000000 0.000000 0.000001 -0.000001 0.000000 0.000001 -0.000001 -0.000001 -0.000000 0.000001 0.000000 0.000001 -0.000000 
-0.543904 82.305206 1.406647 5.037890 -16.196064 0.300093 -0.000001 0.000001 -0.000000 -31.432237 3.448395 9.681852 31.961269 5.068514 1.567942 -4.675045 0.663525 -6.849788 0.000000 -0.000000 -0.000000 0.000000 -0.000000 0.000000 -0.000002 0.000000 0.000000 -11.161029 -11.439247 -12.025242 31.036639 -5.445318 1.434218 -22.119078 -2.824391 11.742824 -0.000000 0.000000 -0.000000 0.000000 0.000000 0.000001 0.000000 -0.000002 -0.000000 23.102461 4.401403 -0.361666 3.678782 1.304124 -0.850523 3.672133 1.375555 -0.864477 -13.000393 2.224553 1.887411 -13.930414 9.001492 -3.326598 0.000001 0.000000 -0.000000 0.000001 0.000000 -0.000000 0.000001 0.000000 -0.000000 0.000001 0.000000 -0.000000 0.000001 0.000000 -0.000000 0.000001 0.000000 -0.000000 0.000001 0.000000 -0.000000 0.000001 0.000000 -0.000000 0.000001 0.000000 -0.000000 0.000001 0.000000 -0.000000 0.000001 0.000000 -0.000000 0.000001 0.000000 -0.000000 0.000001 0.000000 -0.000000 0.000001 0.000000 -0.000000 0.000001 0.000000 -0.000000 0.000001 0.000000 -0.000000 0.000001 0.000000 -0.000000 0.000001 0.000000 -0.000000 0.000001 0.000000 -0.000000 7.549160 -20.634825 8.867784 -33.753989 -3.967026 -84.994054 0.000023 -43.669637 -3.983643 -17.295448 -9.823970 -12.930749 -7.471927 1.860692 -7.166912 30.987004 27.310549 -4.510881 -0.000000 0.000001 0.000001 -4.710337 11.347890 -75.254389 -0.816391 3.073992 -46.874635 -0.000001 0.000001 0.000003 1.629743 16.569749 -84.504863 0.017944 0.022002 -72.696640 -0.000002 -0.000000 -0.000001 -6.793080 22.924060 -76.193397 0.013314 0.979903 -50.545220 0.000000 0.000001 0.000002 -17.423674 21.254423 -44.081201 0.018827 0.026820 -76.662692 0.000003 0.000001 -0.000002 -0.000000 -0.000001 -0.000002 12.767483 26.735601 -21.908224 -43.497759 -2.834411 83.950982 -0.000010 57.335729 5.420120 -18.961467 15.774158 8.544109 9.347172 2.810543 -11.364515 16.169061 -43.266011 15.843536 0.000001 0.000001 0.000001 17.076791 -0.396521 31.924349 -0.204392 -0.284241 112.811564 0.000001 0.000001 0.000002 9.205456 -5.035895 102.738080 0.014991 -0.019194 61.018513 0.000001 -0.000000 -0.000003 5.569165 -8.935242 107.329101 0.547995 -0.005787 41.263707 0.000001 -0.000001 0.000001 6.511259 -17.148276 98.228038 0.007403 -0.015727 43.845727 -0.000003 -0.000002 -0.000001 -0.000001 0.000000 -0.000001 0.000003 0.000000 -0.000000 0.000003 0.000000 -0.000000 0.000003 0.000000 -0.000000 0.000003 0.000000 -0.000000 0.000003 0.000000 -0.000000 0.000002 0.000000 -0.000000 -0.000001 0.000000 -0.000000 -0.000001 0.000000 -0.000000 -0.000001 0.000000 -0.000000 -0.000001 0.000001 -0.000000 
-0.518812 82.290863 1.367227 5.043013 -16.565044 0.345404 -0.000000 -0.000001 -0.000000 -31.413556 3.433801 9.739657 32.086275 5.414895 1.529424 -4.759357 0.675139 -6.924804 0.000000 0.000000 0.000000 -0.000000 0.000001 -0.000000 0.000002 0.000000 0.000000 -11.452574 -11.477940 -12.150435 31.200434 -4.990556 1.387711 -22.106245 -2.792796 11.635539 -0.000000 -0.000003 -0.000000 -0.000003 0.000001 0.000000 -0.000000 0.000004 0.000001 23.106747 4.454129 -0.361790 3.668304 1.344952 -0.853238 3.661474 1.415975 -0.869072 -13.136364 2.786676 1.677591 -13.885455 9.606062 -3.354276 0.000001 -0.000000 -0.000000 0.000001 -0.000000 -0.000000 0.000001 -0.000000 -0.000000 0.000001 -0.000000 -0.000000 0.000001 -0.000000 -0.000000 0.000001 -0.000000 -0.000000 0.000001 -0.000000 -0.000000 0.000001 -0.000000 -0.000000 0.000001 -0.000000 -0.000000 0.000001 -0.000000 -0.000000 0.000001 -0.000000 -0.000000 0.000001 -0.000000 -0.000000 0.000001 -0.000000 -0.000000 0.000001 -0.000000 -0.000000 0.000001 -0.000000 -0.000000 0.000001 -0.000000 -0.000000 0.000001 -0.000000 -0.000000 0.000001 -0.000000 -0.000000 0.000001 -0.000000 -0.000000 7.406737 -20.484203 8.380336 -33.834438 -4.568832 -84.564101 -0.000001 -43.951748 -3.707999 -17.514617 -9.377988 -12.968270 -7.471927 1.860692 -7.166917 30.987001 27.310546 -4.510889 -0.000003 -0.000004 0.000000 -4.708844 11.350752 -75.272182 -0.816395 3.073991 -46.874632 0.000002 0.000001 0.000001 1.633144 16.563837 -84.406351 0.017883 0.022004 -72.597186 -0.000001 0.000000 -0.000001 -6.976360 22.814644 -76.199551 0.013226 0.979832 -50.303377 -0.000002 0.000000 -0.000001 -17.571350 20.794137 -44.643373 0.018351 0.026701 -75.590045 -0.000001 0.000001 -0.000001 0.000003 -0.000000 -0.000002 12.246199 26.525448 -21.177152 -43.721349 -1.487030 83.438615 0.000030 56.901708 5.282911 -19.419551 15.653897 8.438913 9.347171 2.810543 -11.364520 16.169061 -43.266011 15.843534 0.000001 0.000004 -0.000003 17.076793 -0.396521 31.924349 -0.204394 -0.284241 112.811564 -0.000001 0.000000 0.000001 9.205453 -5.035897 102.738080 0.014989 -0.019192 61.018506 0.000001 0.000001 -0.000001 5.569165 -8.935242 107.329101 0.547994 -0.005782 41.263707 0.000000 -0.000002 0.000002 6.511261 -17.148281 98.228038 0.007399 -0.015732 43.845727 -0.000003 0.000001 0.000000 -0.000000 0.000001 -0.000003 -0.000000 0.000000 -0.000001 -0.000000 0.000000 -0.000001 -0.000000 0.000000 -0.000001 -0.000000 0.000000 -0.000001 -0.000000 0.000000 -0.000001 -0.000000 0.000000 -0.000000 -0.000002 -0.000001 0.000000 -0.000002 -0.000001 0.000000 0.000001 -0.000001 0.000001 -0.000000 -0.000001 -0.000000 
